<svg width="24" height="23" viewBox="0 0 24 23" fill="none" xmlns="http://www.w3.org/2000/svg">
<path fill-rule="evenodd" clip-rule="evenodd" d="M23.3533 11.7614C23.3533 10.9459 23.2801 10.1618 23.1442 9.40912H12.3133V13.8575H18.5024C18.2358 15.295 17.4256 16.513 16.2076 17.3284V20.2139H19.9242C22.0988 18.2118 23.3533 15.2637 23.3533 11.7614Z" fill="#4285F4"/>
<path fill-rule="evenodd" clip-rule="evenodd" d="M12.3133 22.9998C15.4183 22.9998 18.0214 21.97 19.9242 20.2137L16.2076 17.3282C15.1778 18.0182 13.8605 18.4259 12.3133 18.4259C9.31803 18.4259 6.7828 16.403 5.87848 13.6848H2.03644V16.6644C3.92871 20.4228 7.8178 22.9998 12.3133 22.9998Z" fill="#34A853"/>
<path fill-rule="evenodd" clip-rule="evenodd" d="M5.87855 13.6851C5.64855 12.9951 5.51787 12.258 5.51787 11.5001C5.51787 10.7421 5.64855 10.0051 5.87855 9.31506V6.33551H2.03651C1.25764 7.88801 0.813324 9.64437 0.813324 11.5001C0.813324 13.3557 1.25764 15.1121 2.03651 16.6646L5.87855 13.6851Z" fill="#FBBC05"/>
<path fill-rule="evenodd" clip-rule="evenodd" d="M12.3133 4.57386C14.0017 4.57386 15.5176 5.15409 16.7094 6.29364L20.0078 2.99523C18.0162 1.13955 15.413 0 12.3133 0C7.8178 0 3.92871 2.57705 2.03644 6.33545L5.87848 9.315C6.7828 6.59682 9.31803 4.57386 12.3133 4.57386Z" fill="#EA4335"/>
</svg>
