<svg width="176" height="54" viewBox="0 0 176 54" fill="none" xmlns="http://www.w3.org/2000/svg">
<path d="M61.2865 4.57886H66.972V36.114H61.2865V4.57886ZM68.688 36.114V31.0701H81.4605V36.114H68.688Z" fill="white"/>
<path d="M86.9628 4.57886H92.6483V36.114H86.9628V4.57886ZM94.3643 9.62273V4.57886H107.993V9.62273H94.3643ZM94.3643 22.5961V17.5522H107.678V22.5961H94.3643ZM94.3643 36.114V31.0701H108.307V36.114H94.3643Z" fill="white"/>
<path d="M133.486 31.877L130.779 36.5631L114.172 7.95734V4.57886H118.368L133.486 31.8809V31.877ZM114.172 36.114V10.9741L119.631 20.3901V36.114H114.172ZM134.39 30.4381L131.503 25.3466L143.193 4.57886H147.389V7.95734L134.394 30.4381H134.39ZM147.385 10.9741V36.114H141.927V20.3901L147.385 10.9741Z" fill="white"/>
<path d="M154.604 4.57886H160.289V36.114H154.604V4.57886ZM162.001 9.62273V4.57886H175.63V9.62273H162.001ZM162.001 22.5961V17.5522H175.315V22.5961H162.001ZM162.001 36.114V31.0701H175.944V36.114H162.001Z" fill="white"/>
<path d="M0 -2.86102e-05L0 23.5698H23.61V-2.86102e-05H0Z" fill="white"/>
<path d="M25.2185 -2.86102e-05V23.5698H48.8285V-2.86102e-05H25.2185Z" fill="white"/>
<path d="M0 25.1797L0 48.7495H23.61V25.1797H0Z" fill="white"/>
<path d="M25.2225 25.1797V48.7495H48.8325V25.1797H25.2225Z" fill="white"/>
<path d="M54.092 54H11.2078V36.9645H12.4022V52.8076H52.8976V12.3811H37.0235V11.1887H54.092V54Z" fill="white"/>
<path d="M61.3342 43.3359H64.7025V43.8685H61.9434V45.6889H64.6349V46.2216H61.9434V48.1334H64.7344V48.666H61.3342V43.3399V43.3359Z" fill="white"/>
<path d="M65.7616 43.3359H66.2354L69.7192 47.7121V43.3359H70.2845V48.662H69.8107L66.327 44.2859V48.662H65.7616V43.3359Z" fill="white"/>
<path d="M76.1412 44.8423C75.7829 44.1944 75.118 43.7612 74.2063 43.7612C72.8804 43.7612 71.9647 44.6992 71.9647 45.9989C71.9647 47.2986 72.9043 48.2526 74.2063 48.2526C75.3888 48.2526 76.0815 47.561 76.3324 46.6786H73.8838V46.1778H76.9773C76.8858 47.6007 75.8426 48.7733 74.2023 48.7733C72.5619 48.7733 71.3516 47.5689 71.3516 46.0029C71.3516 44.4369 72.534 43.2325 74.2023 43.2325C75.3927 43.2325 76.3005 43.8248 76.7504 44.8463H76.1412V44.8423Z" fill="white"/>
<path d="M78.0444 43.3359H81.4127V43.8685H78.6535V45.6889H81.345V46.2216H78.6535V48.1334H81.4445V48.666H78.0444V43.3399V43.3359Z" fill="white"/>
<path d="M82.4757 43.3359H82.9495L86.4333 47.7121V43.3359H86.9987V48.662H86.5249L83.0411 44.2859V48.662H82.4757V43.3359Z" fill="white"/>
<path d="M88.3683 43.3359H88.9774V45.6969H92.1268V43.3359H92.7359V48.662H92.1268V46.2573H88.9774V48.662H88.3683V43.3359Z" fill="white"/>
<path d="M97.5614 47.5174H94.7704L94.3046 48.666H93.6716L95.9131 43.34H96.4148L98.6563 48.666H98.0233L97.5575 47.5174H97.5614ZM94.9775 47.0046H97.3544L96.164 44.0355L94.9735 47.0046H94.9775Z" fill="white"/>
<path d="M101.368 46.9768H100.209V48.666H99.5999V43.34H101.627C102.769 43.34 103.534 44.1786 103.534 45.1524C103.534 45.999 102.96 46.7423 102.076 46.9331L103.701 48.67H102.932L101.368 46.9808V46.9768ZM101.567 46.4521C102.451 46.4521 102.932 45.8202 102.932 45.1524C102.932 44.4847 102.451 43.8646 101.567 43.8646H100.209V46.4521H101.567Z" fill="white"/>
<path d="M104.692 43.3359H105.301V48.662H104.692V43.3359Z" fill="white"/>
<path d="M110.159 47.5174H107.368L106.902 48.666H106.269L108.51 43.34H109.012L111.254 48.666H110.621L110.155 47.5174H110.159ZM107.571 47.0046H109.948L108.757 44.0355L107.567 47.0046H107.571Z" fill="white"/>
<path d="M117.935 48.666L117.325 47.8751C116.959 48.3997 116.378 48.7734 115.609 48.7734C114.558 48.7734 113.81 48.0659 113.81 47.108C113.81 46.1501 114.558 45.5698 115.402 45.3512L113.877 43.3638V43.34H117.329V43.8288H114.921L117.286 46.9569L117.819 45.7844H118.4L117.624 47.422L118.564 48.67H117.939L117.935 48.666ZM117.027 47.4697L115.677 45.7129C114.929 45.9553 114.375 46.321 114.375 47.1199C114.375 47.8353 114.901 48.3004 115.641 48.3004C116.318 48.3004 116.74 47.9506 117.031 47.4697H117.027Z" fill="white"/>
<path d="M126.427 44.8662H125.826C125.467 44.2104 124.791 43.7612 123.867 43.7612C122.549 43.7612 121.633 44.735 121.633 45.999C121.633 47.2629 122.549 48.2367 123.867 48.2367C124.791 48.2367 125.467 47.7876 125.826 47.1318H126.427C126.037 48.0897 125.093 48.7693 123.867 48.7693C122.219 48.7693 121.024 47.565 121.024 45.999C121.024 44.433 122.223 43.2286 123.867 43.2286C125.093 43.2286 126.041 43.9043 126.427 44.8662Z" fill="white"/>
<path d="M130.01 43.2325C131.651 43.2325 132.845 44.4369 132.845 46.0029C132.845 47.5689 131.647 48.7733 130.01 48.7733C128.374 48.7733 127.175 47.5769 127.175 46.0029C127.175 44.4289 128.382 43.2325 130.01 43.2325ZM127.785 46.0029C127.785 47.243 128.692 48.2406 130.01 48.2406C131.328 48.2406 132.236 47.243 132.236 46.0029C132.236 44.7628 131.336 43.7652 130.01 43.7652C128.684 43.7652 127.785 44.7548 127.785 46.0029Z" fill="white"/>
<path d="M133.912 43.3359H134.386L137.87 47.7121V43.3359H138.435V48.662H137.961L134.477 44.2859V48.662H133.912V43.3359Z" fill="white"/>
<path d="M140.087 47.1954C140.203 47.8432 140.637 48.2765 141.385 48.2765C142.134 48.2765 142.604 47.8273 142.604 47.255C142.604 46.6826 142.229 46.4004 141.672 46.2414L141.007 46.0507C140.223 45.8241 139.665 45.4107 139.665 44.6436C139.665 43.7891 140.382 43.2286 141.322 43.2286C142.261 43.2286 142.898 43.8527 142.97 44.6754H142.412C142.345 44.119 141.947 43.7255 141.314 43.7255C140.681 43.7255 140.255 44.0673 140.255 44.6317C140.255 45.1961 140.653 45.3869 141.214 45.5459L141.847 45.7367C142.679 45.9712 143.189 46.4004 143.189 47.2192C143.189 48.1334 142.42 48.7733 141.373 48.7733C140.326 48.7733 139.641 48.1334 139.506 47.1993H140.087V47.1954Z" fill="white"/>
<path d="M148.659 46.6548C148.659 47.879 147.744 48.7693 146.442 48.7693C145.14 48.7693 144.224 47.879 144.224 46.6548V43.3359H144.833V46.6786C144.833 47.6167 145.49 48.2407 146.442 48.2407C147.393 48.2407 148.05 47.6167 148.05 46.6786V43.3359H148.659V46.6548Z" fill="white"/>
<path d="M150.013 43.3359H150.622V48.1294H153.254V48.662H150.013V43.3359Z" fill="white"/>
<path d="M157.219 43.8606H155.472V48.662H154.862V43.8606H153.119V43.3359H157.219V43.8606Z" fill="white"/>
<path d="M160.444 43.2325C162.085 43.2325 163.279 44.4369 163.279 46.0029C163.279 47.5689 162.081 48.7733 160.444 48.7733C158.808 48.7733 157.61 47.5769 157.61 46.0029C157.61 44.4289 158.816 43.2325 160.444 43.2325ZM158.219 46.0029C158.219 47.243 159.127 48.2406 160.444 48.2406C161.762 48.2406 162.67 47.243 162.67 46.0029C162.67 44.7628 161.77 43.7652 160.444 43.7652C159.119 43.7652 158.219 44.7548 158.219 46.0029Z" fill="white"/>
<path d="M166.114 46.9768H164.955V48.666H164.346V43.34H166.373C167.516 43.34 168.28 44.1786 168.28 45.1524C168.28 45.999 167.707 46.7423 166.823 46.9331L168.447 48.67H167.679L166.114 46.9808V46.9768ZM166.313 46.4521C167.197 46.4521 167.679 45.8202 167.679 45.1524C167.679 44.4847 167.197 43.8646 166.313 43.8646H164.955V46.4521H166.313Z" fill="white"/>
<path d="M169.439 43.3359H170.048V48.662H169.439V43.3359Z" fill="white"/>
<path d="M174.905 47.5174H172.114L171.648 48.666H171.015L173.257 43.34H173.758L176 48.666H175.367L174.901 47.5174H174.905ZM172.321 47.0046H174.698L173.508 44.0355L172.317 47.0046H172.321Z" fill="white"/>
</svg>
