<svg width="21" height="23" viewBox="0 0 21 23" fill="none" xmlns="http://www.w3.org/2000/svg">
<path d="M19.7806 17.924C19.4328 18.7275 19.0211 19.4672 18.5441 20.1472C17.8939 21.0743 17.3615 21.716 16.9512 22.0724C16.3151 22.6573 15.6337 22.9568 14.9039 22.9739C14.3801 22.9739 13.7483 22.8248 13.0129 22.5224C12.2751 22.2214 11.597 22.0724 10.977 22.0724C10.3268 22.0724 9.62944 22.2214 8.88352 22.5224C8.13647 22.8248 7.53466 22.9824 7.07453 22.998C6.37475 23.0278 5.67725 22.7197 4.98102 22.0724C4.53665 21.6848 3.98084 21.0204 3.31499 20.0791C2.6006 19.0739 2.01326 17.9084 1.55313 16.5795C1.06035 15.1442 0.813324 13.7543 0.813324 12.4087C0.813324 10.8673 1.14639 9.53789 1.81351 8.42385C2.33781 7.529 3.03531 6.82312 3.90829 6.30493C4.78127 5.78674 5.72453 5.52267 6.74033 5.50578C7.29614 5.50578 8.02502 5.6777 8.9308 6.01559C9.83402 6.35462 10.414 6.52655 10.6682 6.52655C10.8583 6.52655 11.5026 6.32552 12.5948 5.92473C13.6276 5.55305 14.4993 5.39916 15.2134 5.45978C17.1485 5.61595 18.6023 6.37876 19.5691 7.75303C17.8385 8.80163 16.9824 10.2703 16.9994 12.1544C17.0151 13.622 17.5474 14.8432 18.5938 15.8129C19.068 16.2629 19.5975 16.6107 20.1867 16.8578C20.0589 17.2283 19.924 17.5832 19.7806 17.924ZM15.3426 0.460131C15.3426 1.61039 14.9224 2.68439 14.0848 3.67847C13.0739 4.86023 11.8513 5.54311 10.5254 5.43536C10.5085 5.29736 10.4987 5.15213 10.4987 4.99951C10.4987 3.89526 10.9794 2.71349 11.8331 1.74724C12.2593 1.25801 12.8014 0.851218 13.4587 0.526714C14.1146 0.207053 14.735 0.0302728 15.3185 0C15.3355 0.153772 15.3426 0.307554 15.3426 0.460116V0.460131Z" fill="black"/>
</svg>
