<svg width="18" height="18" viewBox="0 0 18 18" fill="none" xmlns="http://www.w3.org/2000/svg">
<path d="M9 13.3857C9.51082 13.3857 9.95117 13.8233 9.95117 14.3809C9.95102 14.9383 9.51073 15.375 9 15.375C8.48927 15.375 8.04898 14.9383 8.04883 14.3809C8.04883 13.8233 8.48918 13.3857 9 13.3857ZM9 8.59277C10.3709 8.59277 11.6654 9.10085 12.6875 10.0322L12.2705 10.4639C11.362 9.6565 10.215 9.21289 9 9.21289C7.78489 9.21289 6.63677 9.65617 5.72852 10.4639L5.31152 10.0322C6.33373 9.10054 7.6289 8.59277 9 8.59277ZM4.64746 5.50195C3.86343 5.90894 3.11827 6.42615 2.44336 7.06836L2.02832 6.63965C2.82423 5.87253 3.70865 5.26168 4.64746 4.80664V5.50195ZM13.3525 4.80664C14.2912 5.26159 15.1749 5.87276 15.9707 6.63965L15.5557 7.06836C14.8809 6.42638 14.1364 5.90883 13.3525 5.50195V4.80664ZM11.3994 1.71777L9.66797 3.50684L9.41504 3.76758L9.66797 4.02832L11.3994 5.81641L10.9834 6.24512L9.26953 4.47461L9 4.19629L8.73047 4.47461L7.01562 6.24512L6.59961 5.81641L8.33203 4.02832L8.58496 3.76758L8.33203 3.50684L6.59961 1.71777L7.01562 1.28906L8.73047 3.06055L9 3.33887L9.26953 3.06055L10.9834 1.28906L11.3994 1.71777Z" fill="#323233" stroke="#323233" stroke-width="0.75"/>
</svg>
