<svg width="18" height="18" viewBox="0 0 18 18" fill="none" xmlns="http://www.w3.org/2000/svg">
<path d="M7.50008 14.25C7.50008 13.425 8.17508 12.75 9.00008 12.75C9.82508 12.75 10.5001 13.425 10.5001 14.25C10.5001 15.075 9.82508 15.75 9.00008 15.75C8.17508 15.75 7.50008 15.075 7.50008 14.25ZM13.7701 9.48C11.1376 6.8475 6.85508 6.8475 4.22258 9.48L5.28008 10.5375C7.32758 8.49 10.6576 8.49 12.7051 10.5375L13.7626 9.48H13.7701ZM17.4826 5.7675C15.2176 3.5025 12.2026 2.25 9.00008 2.25C5.79758 2.25 2.78258 3.495 0.517578 5.7675L1.57508 6.825C3.55508 4.845 6.19508 3.75 9.00008 3.75C11.8051 3.75 14.4376 4.845 16.4251 6.825L17.4826 5.7675Z" fill="black"/>
</svg>
